<svg xmlns="http://www.w3.org/2000/svg" height="48" width="48"><path d="M11.05 38.95q-2.25 0-3.85-1.6t-1.6-3.9H2.75v-20.8q0-1.35 1-2.375t2.4-1.025h27.3V17h4.7l7.1 9.4v7.05h-3.3q0 2.3-1.6 3.9t-3.9 1.6q-2.25 0-3.825-1.6-1.575-1.6-1.575-3.9h-14.5q0 2.35-1.625 3.925Q13.3 38.95 11.05 38.95Zm.05-2.15q1.35 0 2.325-.975.975-.975.975-2.325 0-1.4-.975-2.35-.975-.95-2.325-.95-1.4 0-2.35.95-.95.95-.95 2.35 0 1.35.95 2.325.95.975 2.35.975Zm25.35 0q1.4 0 2.35-.975.95-.975.95-2.325 0-1.4-.95-2.35-.95-.95-2.35-.95-1.35 0-2.325.95-.975.95-.975 2.35 0 1.35.975 2.325.975.975 2.325.975Zm-3-9.7h9.6L37 19.2h-3.55Z"/></svg>